<svg width="64" height="64" viewBox="0 0 64 64" fill="none" xmlns="http://www.w3.org/2000/svg">
<path d="M46.133 37.037C40.388 35.3075 37.0505 34.277 36.116 33.944C37.0128 32.3882 37.6797 30.7108 38.096 28.964H33.2V27.308H39.2V26.288H33.2V23.516H30.896C30.476 23.516 30.428 23.888 30.428 23.888V26.276H24.8V27.296H30.428V28.952H25.82V29.876H35.156C34.8301 31.0086 34.3836 32.1028 33.824 33.14C31.712 32.444 30.536 31.964 27.956 31.724C23.072 31.256 21.944 33.944 21.764 35.588C21.5 38.096 23.72 40.136 27.032 40.136C30.344 40.136 32.552 38.6 34.652 36.056C36.4025 36.893 39.659 38.3435 44.423 40.409C43.0495 42.4401 41.1987 44.1032 39.0327 45.2523C36.8668 46.4015 34.4519 47.0016 32 47C23.7155 47 17 40.2845 17 32C17 23.7155 23.7155 17 32 17C40.2845 17 47 23.7155 47 32C47.0018 33.7163 46.7085 35.4201 46.133 37.037V37.037ZM26.648 38.552C23.144 38.552 22.592 36.332 22.772 35.408C22.952 34.484 23.972 33.284 25.928 33.284C28.172 33.284 30.176 33.86 32.588 35.024C30.884 37.244 28.808 38.552 26.648 38.552V38.552Z" fill="#396AFF"/>
</svg>
