<svg width="200" height="200" viewBox="0 0 200 200" fill="none" xmlns="http://www.w3.org/2000/svg">
<path fill-rule="evenodd" clip-rule="evenodd" d="M99.667 176.175C60.615 155.6 33.9865 114.618 33.9865 67.409C33.9865 66.2158 34.0155 65.0293 34.0493 63.8447L99.6776 23.8246L165.286 63.8447C165.319 65.0293 165.348 66.2158 165.348 67.409C165.348 114.618 138.719 155.6 99.667 176.175ZM181.922 54.6774L99.6776 4.5112L17.4122 54.6774C17.3697 56.1634 17.334 57.6504 17.334 59.1461C17.334 118.324 50.7134 169.696 99.667 195.489C148.621 169.696 182 118.324 182 59.1461C182 57.6504 181.964 56.1634 181.922 54.6774Z" fill="#396AFF"/>
<path fill-rule="evenodd" clip-rule="evenodd" d="M114.358 47.5171L99.7972 74.5573L116.586 105.169L99.7895 131.64L82.994 105.169L99.7827 74.5573L85.5283 47.3674L49.0049 71.4239V74.2684C49.0049 111.116 69.7309 143.086 100.211 159.072C130.691 142.951 151.418 110.981 151.418 74.2684C151.418 73.3215 151.418 72.3727 151.418 71.4239L114.358 47.5171Z" fill="#396AFF"/>
</svg>
