<svg width="65" height="64" viewBox="0 0 65 64" fill="none" xmlns="http://www.w3.org/2000/svg">
<path d="M23.3906 32.7455C26.4851 32.081 26.0636 28.382 25.9706 27.5735C25.8191 26.3285 24.3536 24.1505 22.3631 24.323C19.8581 24.548 19.4936 28.1645 19.4936 28.1645C19.1546 29.837 20.3036 33.41 23.3906 32.7455V32.7455ZM26.6756 39.1775C26.5856 39.437 26.3831 40.1015 26.5586 40.6805C26.9036 41.9795 28.0316 42.038 28.0316 42.038H29.6516V38.078H27.9161C27.1361 38.309 26.7611 38.9165 26.6756 39.1775V39.1775ZM29.1326 26.5445C30.8426 26.5445 32.2226 24.5765 32.2226 22.145C32.2226 19.715 30.8426 17.75 29.1326 17.75C27.4271 17.75 26.0426 19.715 26.0426 22.145C26.0426 24.5765 27.4271 26.5445 29.1326 26.5445ZM36.4946 26.834C38.7776 27.131 40.2461 24.6935 40.5386 22.8455C40.8371 21.0005 39.3626 18.8585 37.7456 18.4895C36.1256 18.1175 34.1021 20.714 33.9176 22.4045C33.6971 24.4745 34.2131 26.5415 36.4946 26.834V26.834ZM36.4946 32.006C33.6971 27.6485 29.7251 29.4215 28.3946 31.6385C27.0731 33.854 25.0106 35.2535 24.7181 35.6255C24.4211 35.9915 20.4491 38.135 21.3311 42.0515C22.2116 45.965 25.3091 45.8915 25.3091 45.8915C25.3091 45.8915 27.5906 46.1165 30.2381 45.5225C32.8871 44.936 35.1671 45.6695 35.1671 45.6695C35.1671 45.6695 41.3546 47.7395 43.0466 43.7525C44.7386 39.7625 42.0911 37.6955 42.0911 37.6955C42.0911 37.6955 38.5571 34.961 36.4931 32.006H36.4946ZM27.4826 43.631C25.7456 43.2845 25.0541 42.0995 24.9671 41.897C24.8816 41.6915 24.3881 40.739 24.6491 39.1175C25.3991 36.689 27.5396 36.515 27.5396 36.515H29.6816V33.8825L31.5041 33.9125V43.631H27.4841H27.4826ZM34.3676 43.6025C32.5736 43.1405 32.4911 41.8655 32.4911 41.8655V36.7475L34.3676 36.7175V41.3165C34.4831 41.8085 35.0921 41.897 35.0921 41.897H36.9986V36.7475H38.9966V43.6025H34.3676V43.6025ZM45.5486 29.9375C45.5486 29.0525 44.8136 26.3915 42.0911 26.3915C39.3626 26.3915 38.9981 28.904 38.9981 30.68C38.9981 32.375 39.1406 34.7405 42.5291 34.6655C45.9191 34.5905 45.5486 30.8255 45.5486 29.9375V29.9375Z" fill="#396AFF"/>
</svg>
