<svg width="64" height="64" viewBox="0 0 64 64" fill="none" xmlns="http://www.w3.org/2000/svg">
<path d="M28.4605 28.2463V26.8431C27.973 26.7846 27.4856 26.7456 26.9785 26.7456C20.9335 26.7456 16 31.657 16 37.7183C16 41.4212 17.8525 44.715 20.68 46.703C18.847 44.7345 17.7355 42.1229 17.7355 39.2384C17.755 33.2552 22.5325 28.3828 28.4605 28.2463Z" fill="#00FAF0"/>
<path d="M28.7142 44.2088C31.4052 44.2088 33.6087 42.065 33.7062 39.3949V15.5202H38.0743C37.9767 15.0329 37.9378 14.5262 37.9378 14H31.9707V37.8747C31.8732 40.5448 29.6697 42.6887 26.9787 42.6887C26.1402 42.6887 25.3407 42.4743 24.6582 42.1039C25.5746 43.3903 27.0567 44.2088 28.7142 44.2088Z" fill="#00FAF0"/>
<path d="M46.2437 23.6279V22.3025C44.5862 22.3025 43.0262 21.8153 41.7197 20.9578C42.8897 22.283 44.4692 23.238 46.2437 23.6279Z" fill="#00FAF0"/>
<path d="M41.7392 20.9591C40.4717 19.4974 39.6917 17.6069 39.6917 15.5215H38.0928C38.5217 17.7823 39.8672 19.7312 41.7392 20.9591Z" fill="#FF0050"/>
<path d="M26.9784 32.6904C24.2093 32.6904 21.9668 34.9318 21.9668 37.6992C21.9668 39.6287 23.0588 41.2854 24.6579 42.1234C24.0728 41.3048 23.7023 40.2914 23.7023 39.1999C23.7023 36.4324 25.9448 34.1911 28.7139 34.1911C29.2208 34.1911 29.7278 34.2691 30.1958 34.425V28.3443C29.7084 28.2858 29.2208 28.2468 28.7139 28.2468C28.6359 28.2468 28.5383 28.2468 28.4603 28.2468V32.9243C27.9923 32.7684 27.5049 32.6904 26.9784 32.6904Z" fill="#FF0050"/>
<path d="M46.2453 23.6279V28.2664C43.1448 28.2664 40.2978 27.2725 37.9578 25.5963V37.6993C37.9578 43.7412 33.0438 48.672 26.9793 48.672C24.6392 48.672 22.4747 47.9314 20.7002 46.6841C22.7087 48.828 25.5557 50.1922 28.7342 50.1922C34.7793 50.1922 39.7128 45.2808 39.7128 39.2196V27.1165C42.0527 28.7926 44.9193 29.7866 48.0003 29.7866V23.8228C47.3958 23.8033 46.8108 23.7449 46.2453 23.6279Z" fill="#FF0050"/>
<path d="M37.956 37.6997V25.5966C40.296 27.2727 43.1626 28.2667 46.2436 28.2667V23.6282C44.4496 23.2383 42.8895 22.2834 41.7196 20.9581C39.8476 19.7498 38.502 17.8008 38.0925 15.5205H33.7245V39.3953C33.627 42.0653 31.4235 44.2091 28.7325 44.2091C27.0555 44.2091 25.5735 43.3906 24.6765 42.1238C23.0775 41.2857 21.9855 39.6096 21.9855 37.6997C21.9855 34.9321 24.228 32.6908 26.997 32.6908C27.504 32.6908 28.011 32.7687 28.479 32.9247V28.2472C22.5509 28.3836 17.7734 33.256 17.7734 39.2003C17.7734 42.0848 18.8849 44.7158 20.7179 46.6649C22.4925 47.9122 24.6765 48.6528 26.997 48.6528C33.0225 48.6722 37.956 43.7414 37.956 37.6997Z" fill="black"/>
</svg>
