<svg width="64" height="64" viewBox="0 0 64 64" fill="none" xmlns="http://www.w3.org/2000/svg">
<path d="M32 48C23.1632 48 16 40.8368 16 32C16 23.1632 23.1632 16 32 16C40.8368 16 48 23.1632 48 32C48 40.8368 40.8368 48 32 48ZM40.0984 30.2224H31.0128C30.8032 30.2224 30.6021 30.3057 30.4539 30.4539C30.3057 30.6022 30.2224 30.8032 30.2224 31.0128L30.2216 32.988C30.2216 33.424 30.5752 33.7784 31.0112 33.7784H36.5432C36.98 33.7784 37.3336 34.132 37.3336 34.568V34.9632C37.3336 35.5919 37.0839 36.1948 36.6393 36.6393C36.1948 37.0839 35.5919 37.3336 34.9632 37.3336H27.456C27.2465 37.3334 27.0457 37.25 26.8976 37.1018C26.7496 36.9536 26.6664 36.7527 26.6664 36.5432V29.0376C26.6664 28.4091 26.916 27.8063 27.3604 27.3618C27.8048 26.9172 28.4075 26.6674 29.036 26.6672H40.0968C40.3063 26.667 40.5071 26.5836 40.6552 26.4354C40.8032 26.2872 40.8864 26.0863 40.8864 25.8768L40.8888 23.9016C40.8888 23.6921 40.8056 23.4912 40.6576 23.343C40.5095 23.1948 40.3087 23.1114 40.0992 23.1112H29.036C28.2578 23.1112 27.4872 23.2645 26.7682 23.5623C26.0492 23.8602 25.3959 24.2967 24.8457 24.847C24.2954 25.3974 23.859 26.0507 23.5612 26.7697C23.2635 27.4887 23.1103 28.2594 23.1104 29.0376V40.0984C23.1104 40.5352 23.464 40.8888 23.9008 40.8888H35.5552C36.9695 40.8888 38.326 40.327 39.3261 39.3269C40.3262 38.3268 40.888 36.9704 40.888 35.556V31.012C40.8878 30.8025 40.8044 30.6017 40.6562 30.4536C40.508 30.3056 40.3071 30.2224 40.0976 30.2224H40.0984Z" fill="#C71D23"/>
</svg>
