<svg width="65" height="64" viewBox="0 0 65 64" fill="none" xmlns="http://www.w3.org/2000/svg">
<path d="M32.5 17C24.2125 17 17.5 23.7125 17.5 32C17.4983 35.1489 18.4882 38.2184 20.3293 40.773C22.1704 43.3276 24.7692 45.2376 27.757 46.232C28.507 46.3625 28.7875 45.9125 28.7875 45.518C28.7875 45.1625 28.768 43.982 28.768 42.725C25 43.4195 24.025 41.807 23.725 40.9625C23.5555 40.5305 22.825 39.2 22.1875 38.843C21.6625 38.5625 20.9125 37.868 22.168 37.85C23.35 37.8305 24.193 38.9375 24.475 39.3875C25.825 41.6555 27.982 41.018 28.843 40.625C28.975 39.65 29.368 38.9945 29.8 38.6195C26.4625 38.2445 22.975 36.95 22.975 31.2125C22.975 29.5805 23.5555 28.232 24.5125 27.1805C24.3625 26.8055 23.8375 25.268 24.6625 23.2055C24.6625 23.2055 25.918 22.8125 28.7875 24.7445C30.0086 24.4056 31.2703 24.235 32.5375 24.2375C33.8125 24.2375 35.0875 24.4055 36.2875 24.743C39.1555 22.793 40.4125 23.207 40.4125 23.207C41.2375 25.2695 40.7125 26.807 40.5625 27.182C41.518 28.232 42.1 29.5625 42.1 31.2125C42.1 36.9695 38.5945 38.2445 35.257 38.6195C35.8 39.0875 36.2695 39.9875 36.2695 41.3945C36.2695 43.4 36.25 45.0125 36.25 45.5195C36.25 45.9125 36.532 46.3805 37.282 46.2305C40.2595 45.2252 42.8469 43.3115 44.6799 40.7587C46.5128 38.206 47.4992 35.1427 47.5 32C47.5 23.7125 40.7875 17 32.5 17Z" fill="black"/>
</svg>
