<svg width="64" height="64" viewBox="0 0 64 64" fill="none" xmlns="http://www.w3.org/2000/svg">
<path d="M28.8774 39.5584C26.4799 41.6665 24.4806 42.7213 22.8793 42.7228C21.2781 42.7242 20.0565 41.7339 19.2146 39.7518L28.8774 39.5568V39.5584ZM35.1949 39.5584L44.8578 39.7518C44.015 41.7325 42.7935 42.7228 41.1931 42.7228C39.5926 42.7228 37.5933 41.6675 35.1949 39.5568V39.5584ZM16.4971 31.2843C20.2055 33.2635 22.5856 34.5691 23.6374 35.2012C24.6893 35.8333 26.4798 36.9675 29.009 38.6037C24.9861 38.8537 22.3533 38.857 21.1106 38.6137C19.689 38.3359 18.5824 37.7296 17.6349 36.7806C16.3737 35.5193 15.9944 33.6873 16.4971 31.2843ZM47.5753 31.2843C48.0784 33.6866 47.6991 35.5189 46.4374 36.7812C45.4903 37.7303 44.3837 38.3365 42.9618 38.6143C41.7193 38.8581 39.087 38.8548 35.0649 38.6043C37.5914 36.9679 39.3815 35.8337 40.4353 35.2018C41.489 34.57 43.869 33.2641 47.5753 31.2843ZM21.0462 23.1334C22.9854 25.7034 24.3125 27.5361 25.0278 28.6315C25.743 29.7269 27.3575 32.6788 29.8715 37.4871C24.913 35.2571 21.4662 33.0427 19.5312 30.8437C18.1409 29.2643 18.1409 26.6731 19.7187 24.4615C19.9479 24.1407 20.3903 23.6983 21.0459 23.1343L21.0462 23.1334ZM43.0246 23.1334C43.6811 23.698 44.1235 24.1404 44.3518 24.4606C45.9312 26.6721 45.9312 29.2621 44.5412 30.8437C42.6062 33.0437 39.1583 35.2585 34.1974 37.4881C36.7112 32.6798 38.3258 29.7274 39.0412 28.6309C39.7566 27.5344 41.0844 25.7019 43.0246 23.1334ZM29.7687 18.6475C30.7376 21.5125 31.2851 23.5343 31.4112 24.7131C31.5372 25.8918 31.4321 29.852 31.0959 36.5937C26.8821 30.5277 24.7753 26.1255 24.7753 23.3871C24.7753 20.6488 26.4397 19.0689 29.7687 18.6475ZM34.3065 18.6475C37.6344 19.07 39.2984 20.6499 39.2984 23.3871C39.2984 26.1244 37.192 30.5266 32.9793 36.5937C32.6424 29.8531 32.5373 25.8931 32.664 24.7137C32.7907 23.5343 33.3382 21.5125 34.3065 18.6481V18.6475Z" fill="#EE2128"/>
</svg>
