<svg width="64" height="64" viewBox="0 0 64 64" fill="none" xmlns="http://www.w3.org/2000/svg">
<path d="M31.9719 45.9143C29.4669 45.9143 27.1676 45.1324 25.6872 43.9647C24.9354 44.1742 23.9737 44.5113 23.3668 44.9292C22.8475 45.2867 22.9122 45.6513 23.0059 45.7985C23.4168 46.445 30.0553 46.2113 31.9719 46.0099V45.9143V45.9143Z" fill="#FAAD08"/>
<path d="M31.5203 45.9143C34.0252 45.9143 36.3246 45.1324 37.805 43.9647C38.5568 44.1742 39.5184 44.5113 40.1254 44.9292C40.6446 45.2867 40.5799 45.6513 40.4863 45.7985C40.0754 46.445 33.4368 46.2113 31.5203 46.0099V45.9143H31.5203Z" fill="#FAAD08"/>
<path d="M31.5353 30.8289C35.6582 30.8015 38.9624 30.0232 40.082 29.7245C40.3489 29.6533 40.4917 29.5256 40.4917 29.5256C40.4927 29.489 40.5087 28.8709 40.5087 28.552C40.5087 23.1823 37.9102 17.7867 31.52 17.7863C25.1299 17.7867 22.5312 23.1823 22.5312 28.552C22.5312 28.8709 22.5474 29.489 22.5483 29.5256C22.5483 29.5256 22.6645 29.645 22.8774 29.7028C23.9111 29.9834 27.2775 30.8009 31.5049 30.8289H31.5353V30.8289Z" fill="black"/>
<path d="M42.8838 35.3682C42.63 34.553 42.2837 33.6024 41.9329 32.6894C41.9329 32.6894 41.7312 32.6646 41.6292 32.694C38.4821 33.6067 34.6676 34.1884 31.7607 34.1533H31.7307C28.8401 34.188 25.0515 33.613 21.9149 32.7093C21.7951 32.6748 21.5585 32.6894 21.5585 32.6894C21.2077 33.6024 20.8614 34.553 20.6077 35.3682C19.3977 39.2552 19.7897 40.8639 20.0882 40.8999C20.7287 40.9772 22.5813 37.9738 22.5813 37.9738C22.5813 41.0256 25.3415 45.7118 31.6618 45.7549C31.7177 45.7547 31.7736 45.7547 31.8296 45.7549C38.15 45.7118 40.91 41.0257 40.91 37.9738C40.91 37.9738 42.7627 40.9773 43.4032 40.9C43.7017 40.8639 44.0937 39.2553 42.8838 35.3682" fill="black"/>
<path d="M29.5746 25.9037C28.7027 25.9424 27.9575 24.9629 27.9108 23.7175C27.8634 22.4714 28.5314 21.4298 29.4035 21.3909C30.2745 21.3526 31.0192 22.3318 31.0665 23.5775C31.1142 24.8237 30.4461 25.865 29.5746 25.9037V25.9037ZM36.033 23.7175C35.9863 24.9629 35.2411 25.9424 34.3693 25.9037C33.4978 25.865 32.8296 24.8237 32.8773 23.5776C32.9246 22.3317 33.6692 21.3525 34.5403 21.3909C35.4125 21.4299 36.0805 22.4714 36.033 23.7175" fill="white"/>
<path d="M37.3731 27.5196C37.1443 26.9693 34.8399 26.3563 31.9871 26.3563H31.9564C29.1036 26.3563 26.7992 26.9693 26.5704 27.5196C26.5595 27.5443 26.5538 27.5709 26.5537 27.5979C26.5537 27.6375 26.566 27.6733 26.5851 27.7037C26.7779 28.0089 29.3368 29.5168 31.9565 29.5168H31.9871C34.6067 29.5168 37.1655 28.0089 37.3584 27.7038C37.3787 27.6721 37.3895 27.6353 37.3897 27.5977C37.3897 27.5696 37.3834 27.5434 37.3731 27.5196" fill="#FAAD08"/>
<path d="M30.6136 24.0118C30.653 24.5083 30.3831 24.9493 30.0115 24.9975C29.6394 25.0458 29.3063 24.6824 29.2667 24.1857C29.2278 23.689 29.4973 23.2479 29.8682 23.2001C30.2409 23.1517 30.5747 23.5154 30.6136 24.0118V24.0118ZM32.8979 24.2598C32.977 24.1311 33.5175 23.4545 34.636 23.7008C34.9298 23.7655 35.0657 23.8607 35.0944 23.8982C35.1367 23.9535 35.1483 24.0323 35.1054 24.1383C35.0203 24.3485 34.8448 24.3428 34.7474 24.3017C34.6846 24.2751 33.9056 23.8051 33.1879 24.5064C33.1386 24.5547 33.0503 24.5713 32.9665 24.514C32.8828 24.4567 32.8482 24.3405 32.8979 24.2598" fill="black"/>
<path d="M31.7604 34.2655H31.7302C29.7437 34.289 27.335 34.031 25.0025 33.5805C24.8027 34.7137 24.6822 36.1379 24.7857 37.8366C25.0473 42.1299 27.6488 44.8284 31.6644 44.8677H31.8276C35.8432 44.8284 38.4448 42.1299 38.7064 37.8366C38.8099 36.1378 38.6893 34.7135 38.4895 33.5803C36.1566 34.031 33.7475 34.2891 31.7604 34.2655" fill="white"/>
<path d="M26.1023 34.0317V38.3276C26.1023 38.3276 28.1322 38.7246 30.1658 38.4498V34.4872C28.8775 34.4165 27.488 34.2589 26.1023 34.0317" fill="#EB1C26"/>
<path d="M40.6281 29.5167C40.6281 29.5167 36.8162 30.7788 31.7611 30.8148H31.7311C26.6843 30.779 22.8771 29.521 22.8641 29.5167L21.5874 32.859C24.7807 33.8687 28.7386 34.5194 31.7311 34.4817L31.7611 34.4816C34.7538 34.5196 38.7111 33.8688 41.9048 32.859L40.6281 29.5167V29.5167Z" fill="#EB1C26"/>
</svg>
