<svg width="33" height="32" viewBox="0 0 33 32" fill="none" xmlns="http://www.w3.org/2000/svg">
<rect x="0.0600586" width="32" height="32" rx="4" fill="#36B37E"/>
<path d="M18.9401 16.5182L18.8898 16.5333C18.7889 16.563 18.6845 16.5786 18.5793 16.5797C18.1218 16.5797 17.8638 16.2708 18.0018 15.889C18.1038 15.61 18.3701 15.3745 18.6956 15.2657C19.1996 15.082 19.5521 14.6628 19.5521 14.1745C19.5521 13.5168 18.9123 12.9843 18.1233 12.9843C17.3343 12.9843 16.6953 13.5168 16.6953 14.1745V17.8255C16.6953 18.703 16.1861 19.4732 15.4248 19.909C14.9898 20.1568 14.4975 20.2866 13.9968 20.2855C12.5088 20.2855 11.2983 19.1823 11.2983 17.8255C11.2983 17.3935 11.4213 16.9878 11.6366 16.6353C11.9696 16.0878 12.5246 15.67 13.1891 15.4795C13.3006 15.444 13.417 15.4255 13.5341 15.4247C13.9931 15.4247 14.2526 15.7352 14.1138 16.1177C14.0193 16.378 13.7643 16.6015 13.4681 16.72C13.4329 16.7318 13.3981 16.7448 13.3638 16.759C12.8928 16.954 12.5681 17.3575 12.5681 17.8255C12.5681 18.4832 13.2078 19.0157 13.9968 19.0157C14.7858 19.0157 15.4248 18.4832 15.4248 17.8255V14.1745C15.4248 13.297 15.9341 12.5268 16.6953 12.091C17.1303 11.8432 17.6226 11.7134 18.1233 11.7145C19.6113 11.7145 20.8218 12.8177 20.8218 14.1745C20.8218 14.6065 20.6988 15.0122 20.4836 15.3647C20.1521 15.9092 19.6001 16.3262 18.9401 16.5182ZM8.56006 16C8.56006 20.1422 11.9178 23.5 16.0601 23.5C20.2023 23.5 23.5601 20.1422 23.5601 16C23.5601 11.8578 20.2023 8.5 16.0601 8.5C11.9178 8.5 8.56006 11.8578 8.56006 16Z" fill="white"/>
</svg>
