<svg width="33" height="32" viewBox="0 0 33 32" fill="none" xmlns="http://www.w3.org/2000/svg">
<rect x="0.89209" width="32" height="32" rx="4" fill="#4383E2"/>
<path d="M22.8921 23.5H10.8921C10.6932 23.5 10.5024 23.421 10.3618 23.2803C10.2211 23.1397 10.1421 22.9489 10.1421 22.75V9.25C10.1421 9.05109 10.2211 8.86032 10.3618 8.71967C10.5024 8.57902 10.6932 8.5 10.8921 8.5H22.8921C23.091 8.5 23.2818 8.57902 23.4224 8.71967C23.5631 8.86032 23.6421 9.05109 23.6421 9.25V22.75C23.6421 22.9489 23.5631 23.1397 23.4224 23.2803C23.2818 23.421 23.091 23.5 22.8921 23.5ZM13.1421 11.5V14.5H16.1421V11.5H13.1421ZM13.1421 16V17.5H20.6421V16H13.1421ZM13.1421 19V20.5H20.6421V19H13.1421ZM17.6421 12.25V13.75H20.6421V12.25H17.6421Z" fill="white"/>
</svg>
