<svg width="64" height="64" viewBox="0 0 64 64" fill="none" xmlns="http://www.w3.org/2000/svg">
<path d="M42.6062 34.4435C41.9126 32.3737 39.7817 31.6178 39.2965 31.5728C38.8114 31.5277 38.3717 31.2622 38.6935 30.7133C39.0154 30.1643 39.6093 28.5669 38.467 27.442C37.3244 26.3126 34.826 26.74 33.0578 27.469C31.2943 28.198 31.3894 27.6895 31.4438 27.1901C31.5028 26.6636 32.4549 23.7208 29.544 23.3653C25.7311 22.9019 20.839 27.586 19.1116 30.2859C16.5 34.3627 16.9127 37.121 16.9127 37.121H16.9308C17.2436 40.9278 22.8929 43.9607 29.8161 43.9607C35.7692 43.9607 40.7836 41.7153 42.2662 38.6645C42.2662 38.6645 42.2706 38.6509 42.2841 38.6283C42.4384 38.3 42.5563 37.9668 42.629 37.6204C42.8374 36.8015 42.9963 35.6137 42.6062 34.4435V34.4435ZM28.9594 42.2957C24.0309 42.2957 20.032 39.6677 20.032 36.4279C20.032 33.1882 24.0264 30.5604 28.9594 30.5604C33.8876 30.5604 37.8866 33.1882 37.8866 36.4279C37.8866 39.6722 33.8876 42.2957 28.9594 42.2957Z" fill="#E71F19"/>
<path d="M41.0967 29.2915C41.1872 29.332 41.2825 29.3499 41.3778 29.3499C41.6588 29.3499 41.9309 29.1834 42.0441 28.9089C42.23 28.4725 42.3251 28.0091 42.3251 27.5275C42.3251 25.5747 40.7249 23.9862 38.757 23.9862C38.2764 23.9862 37.8095 24.0806 37.3696 24.2651C37.0023 24.4181 36.8301 24.8411 36.9841 25.2101C37.1383 25.5746 37.5645 25.7456 37.9362 25.5926C38.1993 25.4845 38.4758 25.426 38.7615 25.426C39.9312 25.426 40.8787 26.371 40.8787 27.5275C40.8787 27.8109 40.8245 28.0855 40.7109 28.3463C40.6731 28.4335 40.6531 28.5274 40.652 28.6225C40.651 28.7175 40.6689 28.8118 40.7048 28.8999C40.7407 28.9879 40.7939 29.0678 40.8611 29.135C40.9284 29.2022 41.0084 29.2553 41.0964 29.2912L41.0967 29.2915H41.0967Z" fill="#F5AA15"/>
<path d="M38.7164 19.5674C37.9049 19.5674 37.1024 19.6844 36.3316 19.9093C35.7559 20.0803 35.4295 20.6788 35.5972 21.2503C35.7694 21.8218 36.3723 22.1458 36.9484 21.9793C37.5228 21.8119 38.1181 21.727 38.7164 21.7273C42.1306 21.7273 44.9098 24.4858 44.9098 27.874C44.9098 28.4814 44.8191 29.0843 44.6467 29.6603C44.4746 30.2318 44.7964 30.8349 45.3721 31.0057C45.4766 31.0374 45.5851 31.0508 45.6896 31.0508C46.1566 31.0508 46.5872 30.7493 46.7324 30.2858C46.9682 29.5074 47.0906 28.6974 47.0906 27.874C47.0861 23.2932 43.3319 19.5674 38.7164 19.5674Z" fill="#F5AA15"/>
<path d="M28.1342 32.7022C25.5044 32.7022 23.3735 34.5515 23.3735 36.8376C23.3735 39.1233 25.5044 40.9729 28.1342 40.9729C30.7638 40.9729 32.8947 39.1235 32.8947 36.8376C32.8947 34.5517 30.7638 32.7022 28.1342 32.7022ZM26.579 39.5239C25.6586 39.5239 24.9106 38.7815 24.9106 37.868C24.9106 36.9546 25.6588 36.2121 26.579 36.2121C27.4994 36.2121 28.2475 36.9546 28.2475 37.868C28.2475 38.7814 27.4994 39.5239 26.579 39.5239ZM29.6984 36.5406C29.499 36.887 29.0954 37.0311 28.8007 36.8599C28.506 36.6936 28.4335 36.275 28.6329 35.9286C28.8325 35.582 29.2359 35.438 29.5306 35.6091C29.8253 35.7801 29.8979 36.1986 29.6984 36.5406H29.6984Z" fill="#040000"/>
</svg>
