<svg width="64" height="64" viewBox="0 0 64 64" fill="none" xmlns="http://www.w3.org/2000/svg">
<path d="M44.6649 19.3434C41.6455 16.3358 37.3046 16 32 16C26.6887 16 22.3414 16.3398 19.3236 19.3552C16.3057 22.3707 16 26.7101 16 32.0154C16 37.3208 16.3065 41.6634 19.3267 44.6788C22.3469 47.6943 26.6891 48 32 48C37.3109 48 41.6574 47.6947 44.6733 44.6788C47.6891 41.663 48 37.3212 48 32.0154C48 26.703 47.6895 22.358 44.6649 19.3434Z" fill="#FF6900"/>
<path d="M30.8223 37.9295C30.8223 37.9557 30.8171 37.9816 30.807 38.0058C30.7969 38.03 30.7821 38.0519 30.7635 38.0704C30.7448 38.0888 30.7227 38.1033 30.6984 38.1131C30.6741 38.1229 30.6481 38.1278 30.6219 38.1275H27.8932C27.8669 38.1279 27.8407 38.123 27.8163 38.1133C27.7918 38.1035 27.7695 38.089 27.7507 38.0706C27.7318 38.0522 27.7168 38.0303 27.7065 38.0061C27.6961 37.9818 27.6907 37.9558 27.6904 37.9295V30.7933C27.6907 30.7669 27.6961 30.7409 27.7065 30.7167C27.7168 30.6925 27.7318 30.6705 27.7507 30.6521C27.7695 30.6337 27.7918 30.6192 27.8163 30.6095C27.8407 30.5997 27.8669 30.5949 27.8932 30.5952H30.6219C30.6481 30.5949 30.6741 30.5998 30.6984 30.6096C30.7227 30.6194 30.7448 30.634 30.7635 30.6524C30.7821 30.6708 30.7969 30.6927 30.807 30.7169C30.8171 30.7411 30.8223 30.767 30.8223 30.7933V37.9295Z" fill="white"/>
<path d="M36.1658 37.9294C36.1652 37.9824 36.1437 38.033 36.1059 38.0701C36.0681 38.1072 36.0172 38.1278 35.9642 38.1274H33.3666C33.3402 38.1279 33.3141 38.1232 33.2896 38.1135C33.2651 38.1038 33.2428 38.0893 33.224 38.0708C33.2052 38.0524 33.1902 38.0304 33.18 38.0061C33.1698 37.9818 33.1646 37.9557 33.1646 37.9294V31.7726C33.1618 30.6973 33.1004 29.5943 32.5452 29.0375C32.0699 28.5587 31.1784 28.449 30.2529 28.426H25.5448C25.5185 28.4257 25.4925 28.4305 25.4681 28.4403C25.4438 28.4501 25.4216 28.4646 25.403 28.483C25.3843 28.5015 25.3694 28.5234 25.3593 28.5476C25.3492 28.5718 25.344 28.5978 25.344 28.624V37.931C25.3433 37.9841 25.3215 38.0348 25.2835 38.0719C25.2455 38.109 25.1943 38.1295 25.1412 38.129H22.5412C22.515 38.1293 22.489 38.1244 22.4647 38.1146C22.4404 38.1048 22.4183 38.0903 22.3997 38.0718C22.381 38.0534 22.3662 38.0315 22.3561 38.0073C22.346 37.9831 22.3408 37.9572 22.3408 37.931V26.0716C22.3408 26.0454 22.346 26.0194 22.3561 25.9952C22.3662 25.9711 22.381 25.9491 22.3997 25.9307C22.4183 25.9123 22.4404 25.8977 22.4647 25.8879C22.489 25.8781 22.515 25.8732 22.5412 25.8735H30.0406C32.0006 25.8735 34.0493 25.9631 35.06 26.9749C36.0707 27.9868 36.1658 30.0363 36.1658 31.9987V37.9294Z" fill="white"/>
<path d="M41.5166 37.9294C41.516 37.9823 41.4944 38.0329 41.4567 38.07C41.4189 38.1071 41.368 38.1277 41.315 38.1274H38.7158C38.6896 38.1278 38.6635 38.123 38.6391 38.1133C38.6147 38.1035 38.5925 38.089 38.5738 38.0706C38.555 38.0521 38.5402 38.0302 38.53 38.0059C38.5199 37.9817 38.5146 37.9557 38.5146 37.9294V26.0716C38.5146 26.0453 38.5199 26.0193 38.53 25.9951C38.5402 25.9708 38.555 25.9489 38.5738 25.9304C38.5925 25.912 38.6147 25.8975 38.6391 25.8877C38.6635 25.878 38.6896 25.8731 38.7158 25.8736H41.315C41.368 25.8732 41.4189 25.8939 41.4567 25.931C41.4944 25.9681 41.516 26.0186 41.5166 26.0716V37.9294Z" fill="white"/>
</svg>
